<svg width="32" height="32" viewBox="0 0 32 32" fill="none" xmlns="http://www.w3.org/2000/svg">
<path fill-rule="evenodd" clip-rule="evenodd" d="M2.84408 29.1559C0.4096 26.7669 0 20.0434 0 15.9994C0 11.9554 0.4096 5.23193 2.84408 2.84296C5.16736 0.563108 12.0001 0 16 0C19.9999 0 26.8326 0.563108 29.1559 2.84296C31.5904 5.23193 32 11.9554 32 15.9994C32 20.0434 31.5904 26.7669 29.1559 29.1559C26.8326 31.4357 19.9999 31.9988 16 31.9988C12.0001 31.9988 5.16736 31.4357 2.84408 29.1559Z" fill="#012A38"/>
<mask id="mask0_177_28" style="mask-type:luminance" maskUnits="userSpaceOnUse" x="0" y="0" width="32" height="32">
<path fill-rule="evenodd" clip-rule="evenodd" d="M2.84408 29.1559C0.4096 26.7669 0 20.0434 0 15.9994C0 11.9554 0.4096 5.23193 2.84408 2.84296C5.16736 0.563108 12.0001 0 16 0C19.9999 0 26.8326 0.563108 29.1559 2.84296C31.5904 5.23193 32 11.9554 32 15.9994C32 20.0434 31.5904 26.7669 29.1559 29.1559C26.8326 31.4357 19.9999 31.9988 16 31.9988C12.0001 31.9988 5.16736 31.4357 2.84408 29.1559Z" fill="white"/>
</mask>
<g mask="url(#mask0_177_28)">
<path d="M12.4042 16.1191L26.6657 12.7235V5.33313H19.2753L12.4042 16.1191Z" fill="#FF3300"/>
<path d="M5.33307 15.9994C5.33307 16.8782 5.43294 17.7371 5.65265 18.5561L12.4039 16.1192L5.59273 13.6624C5.43294 14.4214 5.33307 15.2004 5.33307 15.9994Z" fill="#FF3300"/>
<path d="M7.84998 9.10858L12.4041 16.1195L14.5013 5.43335C11.8448 5.81286 9.50783 7.15112 7.84998 9.10858Z" fill="#FF3300"/>
<path d="M12.4042 16.1193L26.6657 19.5149V26.9252H19.2753L12.4042 16.1193Z" fill="#FF3300"/>
<path d="M7.84998 23.1302L12.4041 16.1193L14.5013 26.8054C11.8448 26.4459 9.50783 25.0876 7.84998 23.1302Z" fill="#FF3300"/>
</g>
</svg>
